<?xml version="1.0" standalone="no"?>
<!DOCTYPE svg PUBLIC "-//W3C//DTD SVG 20010904//EN"
 "http://www.w3.org/TR/2001/REC-SVG-20010904/DTD/svg10.dtd">
<svg version="1.0" xmlns="http://www.w3.org/2000/svg"
 width="587.000000pt" height="204.000000pt" viewBox="0 0 587.000000 204.000000"
 preserveAspectRatio="xMidYMid meet">

<g transform="translate(0.000000,204.000000) scale(0.100000,-0.100000)"
fill="#000000" stroke="none">
<path d="M810 1699 c-164 -18 -166 -18 -280 -73 -106 -50 -122 -62 -206 -148
l-92 -93 -21 -114 c-16 -91 -18 -117 -8 -130 7 -10 52 -67 101 -129 l88 -112
134 0 134 0 108 -92 c157 -135 138 -125 172 -100 35 26 40 27 40 7 0 -8 54
-57 120 -110 l120 -95 70 0 71 0 -53 103 c-29 56 -53 105 -53 109 0 4 58 49
129 100 127 92 129 94 192 198 l63 105 -53 205 -53 204 -44 18 c-118 47 -476
168 -494 167 -11 -1 -94 -10 -185 -20z m459 -122 c118 -42 218 -80 222 -84 4
-5 11 -25 14 -45 l7 -38 -146 0 -146 0 -31 -50 -31 -50 -144 0 -144 0 -20 33
c-26 41 -25 49 6 86 25 30 28 31 116 31 49 0 98 -5 109 -11 45 -23 84 24 59
71 -10 18 -17 21 -43 15 -18 -4 -83 -9 -145 -12 l-112 -4 -24 -35 c-20 -30
-25 -32 -36 -19 -10 12 -42 15 -176 15 -90 0 -164 4 -164 8 0 17 37 41 135 88
94 45 109 48 250 65 83 10 168 16 190 15 22 -2 136 -38 254 -79z m-505 -257
l51 -85 184 0 185 0 26 45 26 45 134 3 c73 1 137 -1 142 -6 5 -5 15 -32 23
-61 l14 -52 -102 3 c-56 2 -110 7 -119 12 -18 9 -58 -24 -58 -48 0 -27 31 -48
59 -40 46 12 231 16 231 4 0 -6 -11 -28 -25 -50 l-25 -40 -163 0 -163 0 -23
40 -22 40 -187 0 -188 0 -49 85 -49 85 -189 2 c-135 2 -191 6 -194 15 -2 6 12
30 33 53 l37 40 180 -2 181 -3 50 -85z m-90 -174 c39 -67 54 -85 77 -90 21 -4
35 -19 59 -64 l32 -60 56 -6 c31 -3 68 -7 81 -8 48 -6 60 71 15 89 -9 3 -33 0
-55 -7 -34 -12 -41 -11 -58 4 -10 10 -21 26 -24 37 -5 18 1 19 118 19 l124 0
22 -40 23 -40 165 0 166 -1 -38 -33 c-20 -18 -91 -70 -157 -115 l-120 -82 40
-78 c22 -42 40 -80 40 -84 0 -4 -43 25 -95 65 l-95 73 0 69 c0 79 0 79 -85 15
l-54 -41 -108 96 -108 96 -131 0 c-157 0 -172 8 -129 65 30 38 36 40 67 24 32
-17 68 3 68 39 0 15 -5 33 -12 40 -15 15 -54 16 -63 2 -3 -5 -21 -10 -40 -10
-27 0 -39 -7 -63 -40 l-29 -40 -52 66 c-51 67 -56 79 -45 108 5 14 31 16 183
16 l177 0 48 -84z"/>
<path d="M2595 1603 c-81 -29 -90 -54 -90 -253 0 -185 6 -204 68 -236 45 -24
171 -25 214 -1 61 33 68 54 71 223 3 136 2 157 -17 198 -15 36 -29 50 -57 62
-58 24 -132 27 -189 7z m173 -49 c36 -23 42 -55 42 -204 0 -140 0 -140 -29
-172 -25 -28 -35 -32 -93 -36 -61 -4 -67 -2 -99 26 l-34 30 -3 128 c-4 143 1
183 26 214 32 40 137 47 190 14z"/>
<path d="M2593 1536 c-28 -24 -28 -25 -31 -161 -4 -153 4 -187 49 -210 58 -31
150 -12 174 36 18 34 21 275 4 312 -15 33 -49 47 -114 47 -43 0 -60 -5 -82
-24z m121 -26 c32 -12 46 -61 46 -161 0 -117 -22 -159 -82 -159 -13 0 -34 7
-46 16 -21 14 -22 22 -22 143 0 133 6 155 45 164 32 7 32 7 59 -3z"/>
<path d="M3100 1609 c-28 -5 -56 -20 -75 -39 l-30 -30 0 -186 0 -186 37 -33
c44 -41 108 -53 187 -37 86 18 121 66 121 170 l0 42 -49 0 -48 0 -6 -41 c-6
-48 -20 -65 -63 -73 -23 -5 -37 -1 -57 14 -27 21 -27 23 -27 144 0 136 6 150
67 162 26 5 37 1 57 -19 14 -15 26 -33 26 -42 0 -11 12 -15 51 -15 l52 0 -7
47 c-7 56 -26 88 -64 107 -37 19 -118 26 -172 15z m135 -54 c21 -8 39 -25 45
-41 14 -36 5 -42 -12 -8 -19 41 -54 55 -121 51 -43 -2 -63 -9 -80 -25 -21 -21
-22 -31 -22 -177 0 -147 1 -155 23 -177 19 -20 33 -23 93 -23 65 0 73 2 95 28
13 15 25 40 25 55 1 18 3 21 6 9 8 -32 -18 -79 -53 -93 -43 -18 -118 -18 -153
1 -45 23 -53 57 -49 215 l3 142 33 29 c27 24 41 29 82 29 28 0 66 -7 85 -15z"/>
<path d="M4850 1609 c-58 -11 -100 -53 -111 -110 -11 -61 -11 -215 1 -280 19
-102 105 -147 229 -121 86 18 121 66 121 170 l0 42 -50 0 c-47 0 -50 -2 -50
-25 0 -73 -68 -116 -120 -77 -24 18 -25 25 -28 133 -4 147 -1 155 48 170 33
10 43 9 64 -5 14 -9 28 -27 32 -41 6 -22 11 -25 56 -25 l51 0 -6 45 c-8 54
-30 91 -66 109 -36 19 -118 26 -171 15z m135 -54 c21 -8 39 -25 45 -40 12 -33
12 -35 0 -35 -5 0 -10 8 -10 18 0 38 -37 57 -112 57 -64 0 -72 -2 -94 -28 -23
-27 -24 -34 -24 -173 l0 -146 30 -30 c29 -29 34 -30 97 -26 57 4 69 8 89 32
13 15 25 39 25 54 1 18 3 21 6 9 8 -31 -17 -75 -52 -91 -41 -20 -117 -21 -154
-2 -43 23 -51 54 -51 207 l0 141 34 34 c30 30 40 34 85 34 29 0 67 -7 86 -15z"/>
<path d="M1930 1355 l0 -255 50 0 50 0 1 143 0 142 25 -90 c57 -208 51 -195
89 -195 l34 0 31 103 c62 202 58 200 59 40 l1 -143 45 0 45 0 0 255 0 255 -54
0 -54 0 -52 -155 c-28 -85 -53 -155 -55 -155 -2 0 -13 33 -25 73 -12 39 -33
109 -46 155 l-25 82 -60 0 -59 0 0 -255z m149 23 c35 -106 66 -188 68 -183 3
6 32 91 66 190 54 157 65 180 85 183 l22 3 -2 -218 -3 -218 -2 213 c-3 167 -6
212 -17 212 -8 0 -38 -76 -81 -201 -37 -110 -71 -197 -75 -192 -4 4 -35 95
-69 201 -83 259 -90 258 -94 -20 l-2 -213 -3 218 -2 217 23 0 c20 0 28 -18 86
-192z"/>
<path d="M3470 1355 l0 -255 50 0 50 0 0 89 c0 80 3 93 23 117 l24 27 39 -114
39 -114 58 -3 c31 -2 57 0 57 3 0 3 -29 78 -65 166 l-64 161 55 75 c76 103 76
103 16 103 l-51 0 -63 -82 -63 -83 -3 83 -3 82 -49 0 -50 0 0 -255z m260 216
c0 -4 -22 -37 -49 -72 l-48 -65 53 -139 c30 -77 54 -144 53 -150 0 -5 -22 46
-50 115 -27 69 -52 133 -57 143 -6 16 -14 10 -54 -41 -47 -58 -47 -60 -51
-143 -1 -46 -3 15 -3 136 0 173 1 193 6 93 l5 -126 95 129 c52 71 96 129 98
129 1 0 2 -4 2 -9z"/>
<path d="M3890 1565 l0 -44 58 -3 57 -3 3 -207 2 -208 50 0 50 0 0 210 0 210
55 0 55 0 0 45 0 45 -165 0 -165 0 0 -45z m228 -2 l-58 -4 -2 -212 -3 -212 -2
212 -3 212 -63 4 c-34 2 -6 3 63 3 69 0 99 -1 68 -3z"/>
<path d="M4340 1355 l0 -255 135 0 135 0 0 45 0 45 -85 0 -85 0 0 60 0 60 65
0 65 0 0 50 0 50 -65 0 -65 0 0 55 0 55 85 0 85 0 0 45 0 45 -135 0 -135 0 0
-255z m143 208 l-93 -4 0 -94 0 -95 70 0 c40 0 70 -4 70 -10 0 -6 -30 -10 -70
-10 l-70 0 0 -100 0 -99 93 -4 92 -3 -97 -2 -98 -2 0 215 0 215 98 -2 97 -2
-92 -3z"/>
<path d="M5220 1355 l0 -255 50 0 50 0 0 105 0 105 65 0 65 0 0 -105 0 -105
50 0 50 0 0 255 0 255 -50 0 -50 0 0 -100 0 -100 -65 0 -65 0 0 100 0 100 -50
0 -50 0 0 -255z m165 15 l105 0 0 101 c0 55 4 98 9 95 11 -7 11 -416 0 -416
-5 0 -9 45 -9 100 l0 100 -105 0 -104 0 -4 -107 c-1 -60 -3 -9 -3 112 0 121 2
174 3 118 l4 -103 104 0z"/>
<path d="M2894 796 c-39 -17 -58 -62 -51 -123 3 -32 12 -53 27 -65 28 -22 80
-24 80 -3 0 9 -9 15 -24 15 -33 0 -51 26 -51 75 0 49 18 75 52 75 17 0 24 5
21 17 -4 22 -17 25 -54 9z"/>
<path d="M3838 802 l-38 -3 0 -105 0 -104 46 0 c38 0 45 3 42 18 -2 10 -14 18
-31 20 -24 3 -28 7 -25 30 2 21 9 28 31 30 15 2 27 9 27 17 0 8 -12 15 -27 17
-20 2 -28 9 -28 23 0 14 8 21 28 23 15 2 27 10 27 17 0 18 -8 21 -52 17z"/>
<path d="M4488 803 l-38 -4 0 -105 0 -104 45 0 c38 0 45 3 45 20 0 15 -7 20
-25 20 -21 0 -25 5 -25 30 0 25 4 30 25 30 16 0 25 6 25 15 0 9 -9 15 -25 15
-20 0 -25 5 -25 25 0 20 5 25 25 25 18 0 25 5 25 20 0 11 -3 19 -7 18 -5 -1
-25 -3 -45 -5z"/>
<path d="M1977 793 c-3 -5 -13 -46 -22 -92 -9 -47 -19 -91 -22 -98 -3 -8 3
-13 16 -13 12 0 21 6 21 15 0 9 9 15 25 15 16 0 25 -6 25 -15 0 -9 9 -15 21
-15 15 0 19 5 15 15 -3 8 -13 55 -23 105 -14 72 -20 90 -34 90 -10 0 -20 -3
-22 -7z m32 -130 c1 -7 -6 -13 -14 -13 -17 0 -18 4 -8 39 6 23 7 23 14 5 4
-10 8 -25 8 -31z"/>
<path d="M2122 698 c3 -88 5 -103 21 -106 15 -3 17 7 17 102 0 101 -1 106 -21
106 -20 0 -20 -4 -17 -102z"/>
<path d="M2372 698 c-10 -80 -10 -103 0 -109 16 -10 28 9 28 47 0 48 14 50 25
2 13 -52 41 -64 50 -21 14 65 22 70 30 21 5 -36 12 -48 25 -48 15 0 16 6 9 48
-4 26 -10 73 -14 105 -5 45 -10 57 -24 57 -13 0 -20 -15 -29 -60 -7 -33 -16
-58 -21 -56 -4 3 -13 30 -20 61 -9 41 -17 55 -30 55 -15 0 -19 -16 -29 -102z"/>
<path d="M2641 781 c-45 -45 -34 -159 19 -186 60 -31 110 16 110 103 0 43 -5
58 -25 77 -30 30 -77 33 -104 6z m73 -14 c25 -19 33 -90 12 -122 -18 -28 -47
-33 -66 -10 -18 22 -15 103 6 126 20 22 25 23 48 6z"/>
<path d="M3020 690 c0 -89 3 -110 14 -110 19 0 29 33 21 70 -10 45 8 36 33
-15 21 -44 46 -65 60 -51 3 4 -8 33 -25 64 l-32 57 25 40 c13 22 24 43 24 48
0 15 -39 6 -44 -10 -4 -10 -16 -29 -27 -43 l-20 -25 6 43 c6 38 5 42 -14 42
-20 0 -21 -5 -21 -110z"/>
<path d="M3330 692 c0 -106 1 -110 20 -105 19 5 20 12 18 107 -3 87 -5 101
-20 104 -16 3 -18 -7 -18 -106z"/>
<path d="M3432 693 c2 -88 6 -108 18 -108 11 0 16 15 18 60 l4 60 28 -62 c16
-35 34 -63 39 -63 7 0 11 39 11 110 0 90 -3 110 -15 110 -10 0 -15 -16 -17
-62 l-3 -63 -24 63 c-17 46 -28 62 -43 62 -17 0 -18 -7 -16 -107z"/>
<path d="M3620 785 c0 -8 9 -15 20 -15 19 0 20 -7 20 -95 0 -78 3 -95 15 -95
12 0 15 17 15 95 0 88 1 95 20 95 11 0 20 7 20 15 0 12 -13 15 -55 15 -42 0
-55 -3 -55 -15z"/>
<path d="M3952 693 c2 -88 6 -108 18 -108 10 0 17 14 20 45 l5 45 18 -43 c16
-41 40 -62 54 -48 4 3 -4 27 -16 52 -21 42 -22 47 -7 63 18 20 21 54 6 82 -8
14 -21 19 -56 19 l-45 0 3 -107z m72 55 c7 -12 6 -21 -3 -32 -21 -25 -31 -19
-31 20 0 37 14 42 34 12z"/>
<path d="M4140 793 c0 -5 11 -50 24 -102 38 -145 52 -146 86 -11 11 47 23 93
26 103 4 12 0 17 -15 17 -17 0 -22 -10 -32 -60 -6 -33 -15 -63 -19 -65 -4 -3
-14 24 -21 60 -10 51 -16 65 -31 65 -10 0 -18 -3 -18 -7z"/>
<path d="M4350 690 c0 -93 2 -109 15 -104 12 5 15 27 15 110 0 86 -3 104 -15
104 -12 0 -15 -19 -15 -110z"/>
<path d="M4610 793 c0 -9 26 -122 41 -175 14 -55 34 -48 51 20 l15 57 13 -58
c20 -86 37 -72 69 56 26 100 27 107 10 107 -13 0 -21 -12 -29 -42 -19 -73 -23
-75 -33 -15 -8 44 -14 57 -28 57 -19 0 -24 -11 -35 -74 -8 -45 -18 -34 -29 32
-5 32 -11 42 -26 42 -10 0 -19 -3 -19 -7z"/>
<path d="M2230 670 c0 -16 7 -20 30 -20 23 0 30 4 30 20 0 16 -7 20 -30 20
-23 0 -30 -4 -30 -20z"/>
</g>
</svg>
